<svg width="268" height="268" viewBox="0 0 268 268" fill="none" xmlns="http://www.w3.org/2000/svg">
<path d="M198 192.667V91.3335" stroke="#FF0000" stroke-width="10.6667" stroke-linecap="round" stroke-linejoin="round"/>
<path d="M144.666 144.667V91.3335" stroke="#FF0000" stroke-width="10.6667" stroke-linecap="round" stroke-linejoin="round"/>
<path d="M144.666 139.333C141.72 139.333 139.333 141.721 139.333 144.667V192.667C139.333 195.612 141.72 198 144.666 198C147.612 198 149.999 195.612 149.999 192.667V150H192.666C195.612 150 197.999 147.612 197.999 144.667C197.999 141.721 195.612 139.333 192.666 139.333H144.666ZM258.228 265.771C260.311 267.854 263.688 267.854 265.771 265.771C267.853 263.688 267.853 260.311 265.771 258.229L258.228 265.771ZM140.895 148.438L258.228 265.771L265.771 258.229L148.437 140.895L140.895 148.438Z" fill="white"/>
<path d="M262 262H6L262 6" stroke="white" stroke-width="10.6667" stroke-linecap="round" stroke-linejoin="round"/>
<path d="M123.334 123.333V176.667" stroke="#FF0000" stroke-width="10.6667" stroke-linecap="round" stroke-linejoin="round"/>
<path d="M262 11.3333C264.946 11.3333 267.333 8.94552 267.333 6C267.333 3.05448 264.946 0.666666 262 0.666666V11.3333ZM6 6V0.666666C3.84287 0.666666 1.89814 1.96609 1.07264 3.95902C0.247143 5.95195 0.70344 8.24591 2.22876 9.77124L6 6ZM123.333 128.667C126.279 128.667 128.667 126.279 128.667 123.333L128.667 75.3333C128.667 72.3878 126.279 70 123.333 70C120.388 70 118 72.3878 118 75.3333L118 118L75.3333 118C72.3878 118 70 120.388 70 123.333C70 126.279 72.3878 128.667 75.3333 128.667L123.333 128.667ZM262 0.666666H6V11.3333H262V0.666666ZM2.22876 9.77124L119.562 127.105L127.105 119.562L9.77124 2.22876L2.22876 9.77124Z" fill="white"/>
<path d="M70 70V176.667" stroke="#FF0000" stroke-width="10.6667" stroke-linecap="round" stroke-linejoin="round"/>
</svg>
