<svg width="26" height="26" viewBox="0 0 26 26" fill="none" xmlns="http://www.w3.org/2000/svg">
<path d="M19 18.5V9" stroke="#FF0000" stroke-linecap="round" stroke-linejoin="round"/>
<path d="M14 14V9" stroke="#FF0000" stroke-linecap="round" stroke-linejoin="round"/>
<path d="M14 13.5C13.7239 13.5 13.5 13.7239 13.5 14V18.5C13.5 18.7761 13.7239 19 14 19C14.2761 19 14.5 18.7761 14.5 18.5V14.5H18.5C18.7761 14.5 19 14.2761 19 14C19 13.7239 18.7761 13.5 18.5 13.5H14ZM24.6464 25.3536C24.8417 25.5488 25.1583 25.5488 25.3536 25.3536C25.5488 25.1583 25.5488 24.8417 25.3536 24.6464L24.6464 25.3536ZM13.6464 14.3536L24.6464 25.3536L25.3536 24.6464L14.3536 13.6464L13.6464 14.3536Z" fill="black"/>
<path d="M25 25H1L25 1" stroke="black" stroke-linecap="round" stroke-linejoin="round"/>
<path d="M12 12V17" stroke="#FF0000" stroke-linecap="round" stroke-linejoin="round"/>
<path d="M25 1.5C25.2761 1.5 25.5 1.27614 25.5 1C25.5 0.723858 25.2761 0.5 25 0.5V1.5ZM1 1V0.5C0.797769 0.5 0.615451 0.621821 0.53806 0.808658C0.46067 0.995495 0.503448 1.21055 0.646447 1.35355L1 1ZM12 12.5C12.2761 12.5 12.5 12.2761 12.5 12V7.5C12.5 7.22386 12.2761 7 12 7C11.7239 7 11.5 7.22386 11.5 7.5V11.5H7.5C7.22386 11.5 7 11.7239 7 12C7 12.2761 7.22386 12.5 7.5 12.5H12ZM25 0.5H1V1.5H25V0.5ZM0.646447 1.35355L11.6464 12.3536L12.3536 11.6464L1.35355 0.646447L0.646447 1.35355Z" fill="black"/>
<path d="M7 7V17" stroke="#FF0000" stroke-linecap="round" stroke-linejoin="round"/>
</svg>
